<?xml version="1.0" encoding="UTF-8"?>
<svg width="144px" height="17px" viewBox="0 0 144 17" version="1.1" xmlns="http://www.w3.org/2000/svg" xmlns:xlink="http://www.w3.org/1999/xlink">
    <!-- Generator: sketchtool 52.6 (67491) - http://www.bohemiancoding.com/sketch -->
    <title>F47B82E5-636E-472F-8088-23B9A584C9C1</title>
    <desc>Created with sketchtool.</desc>
    <defs>
        <polygon id="path-1" points="0.271875945 0.19761 11.1178398 0.19761 11.1178398 16.45 0.271875945 16.45"></polygon>
        <polygon id="path-3" points="0.114958112 0.19754 18.0031043 0.19754 18.0031043 16.45 0.114958112 16.45"></polygon>
    </defs>
    <g id="Page-1" stroke="none" stroke-width="1" fill="none" fill-rule="evenodd">
        <g id="LG_GDPR_AcceptForm_B" transform="translate(-24.000000, -17.000000)">
            <g id="CME/CE-Header/LG" transform="translate(24.000000, 17.000000)">
                <g id="Atoms/Logos/EBSCOHealth/color">
                    <g id="Group">
                        <path d="M-1.17239551e-13,16.8 L-1.17239551e-13,15.8320888 C1.76607643,15.8320888 2.26652446,15.3217421 2.26652446,13.9469087 L2.26652446,3.50031503 C2.26652446,2.12369849 1.76607643,1.61513497 -1.17239551e-13,1.61513497 L-1.17239551e-13,0.646153846 L12.8328917,0.646153846 L13.5178284,2.93932596 C13.5966391,3.19503426 13.6500155,3.42328156 13.6500155,3.52527958 C13.6500155,3.65295541 13.4128669,3.90759381 13.1227002,3.90759381 C12.9392861,3.90759381 12.8594007,3.80523916 12.5695923,3.37228256 C11.3838493,1.66613398 9.85527966,1.3597833 7.51066095,1.3597833 C5.87641334,1.3597833 5.69192463,1.61513497 5.69192463,2.63368855 L5.69192463,7.6786672 L7.77360214,7.6786672 C9.30181351,7.6786672 9.88214695,7.34770861 10.2235406,5.8694507 C10.2776334,5.58877784 10.3288604,5.56416993 10.7239887,5.53777883 C11.0410227,5.53777883 11.1732097,5.6148123 11.1732097,6.02316099 L11.1732097,11.0171406 C11.1732097,11.2714224 10.9629284,11.3480992 10.6727617,11.3480992 C10.382595,11.3480992 10.3288604,11.2714224 10.3030678,11.169781 C9.59198023,8.92725127 9.14419209,8.79957543 7.77360214,8.79957543 L5.69192463,8.79957543 L5.69192463,14.2272249 C5.69192463,15.5774504 5.95522406,15.8320888 8.40623723,15.8320888 C11.6478651,15.8320888 12.5437997,14.8887855 13.860655,12.6983247 C13.9405404,12.5710055 13.9917674,12.4936154 14.3084432,12.4936154 C14.5978934,12.4936154 14.7035714,12.5710055 14.7035714,12.6722902 C14.7035714,12.7742882 14.6774206,12.9016074 14.6512698,13.1316379 L14.0712946,16.8 L-1.17239551e-13,16.8 Z" id="Fill-1" fill="#1E548B"></path>
                        <path d="M21.7215917,14.0738713 C21.7215917,15.42481 22.1356193,15.8317321 23.6869927,15.8317321 C25.7550219,15.8317321 26.7886851,14.4048299 26.7886851,12.3670094 C26.7886851,9.92119694 25.1856461,8.79957543 23.0146372,8.79957543 C21.9279026,8.79957543 21.7215917,9.0039281 21.7215917,10.023195 L21.7215917,14.0738713 Z M21.7215917,6.83843182 C21.7215917,7.57702582 22.0832508,7.83166422 23.1429225,7.83166422 C24.7463129,7.83166422 26.0126469,7.14406922 26.0126469,4.69790009 C26.0126469,2.32769452 24.8756526,1.61513497 23.0146372,1.61513497 C21.9795682,1.61513497 21.7215917,2.02241375 21.7215917,2.93932596 L21.7215917,6.83843182 Z M18.3608685,3.50031503 C18.3608685,2.12441176 17.8698697,1.61513497 15.9821429,1.61513497 L15.9821429,0.646153846 L22.6519237,0.646153846 C26.8399992,0.646153846 29.1153937,2.02241375 29.1153937,4.44326169 C29.1153937,6.71075598 26.9436818,7.72930957 25.4450284,8.16297944 L25.4450284,8.21362181 C28.5463693,8.59593604 30.0464286,10.6344698 30.0464286,12.5196498 C30.0464286,14.2521895 28.7010146,16.8 24.0472459,16.8 L15.9821429,16.8 L15.9821429,15.8317321 C17.8698697,15.8317321 18.3608685,15.3220987 18.3608685,13.9472654 L18.3608685,3.50031503 Z" id="Fill-3" fill="#1D548B"></path>
                        <g id="Group-7" transform="translate(32.603571, -0.000000)">
                            <mask id="mask-2" fill="white">
                                <use xlink:href="#path-1"></use>
                            </mask>
                            <g id="Clip-6"></g>
                            <path d="M10.3279978,3.69866 C10.3279978,4.22331 10.2265851,4.32341 9.89534988,4.32341 C9.61499404,4.32341 9.51323525,4.17361 9.18234613,3.52296 C8.59706004,2.34766 7.2987702,1.14681 5.66959124,1.14681 C4.19235823,1.14681 2.9189889,2.14781 2.9189889,3.49741 C2.9189889,7.02331 11.1178398,6.12346 11.1178398,11.59921 C11.1178398,13.79966 9.87042937,16.45021 5.15975895,16.45021 C3.81093583,16.45021 1.56981967,15.97491 0.679603333,15.49996 C0.500660159,15.27561 0.271875945,13.30056 0.271875945,12.22501 C0.271875945,11.69966 0.37432697,11.52466 0.805936522,11.52466 C1.24031502,11.52466 1.34172769,11.57471 1.51894027,12.22501 C1.79929612,13.19941 2.86949398,15.49996 5.6443246,15.49996 C7.27384968,15.49996 8.72477771,14.69951 8.72477771,12.97506 C8.72477771,9.24861 0.525926797,9.72461 0.525926797,4.74831 C0.525926797,1.64766 3.58145938,0.19761 6.07628027,0.19761 C8.46934238,0.19761 10.0742931,0.89761 10.2265851,1.09746 C10.252544,1.44781 10.3279978,1.77331 10.3279978,2.74736 L10.3279978,3.69866 Z" id="Fill-5" fill="#185188" mask="url(#mask-2)"></path>
                        </g>
                        <path d="M60.5781543,13.7508485 C60.5001101,14.4234129 60.3972178,14.7063313 60.166935,14.9910587 C59.7805637,15.4566802 57.6943691,16.8 54.0654894,16.8 C49.2508981,16.8 45.3892857,13.0269102 45.3892857,8.40036179 C45.3892857,3.77381342 49.2508981,-1.77635684e-15 54.0654894,-1.77635684e-15 C57.024519,-1.77635684e-15 60.4504138,1.24093376 60.4504138,2.40408304 C60.4504138,3.54082178 60.2698273,4.52307692 60.2698273,4.93732449 C60.2698273,5.09216987 60.1406869,5.45323456 59.83096,5.45323456 C59.5737291,5.45323456 59.4704868,5.37689723 59.1110636,4.41996727 C58.260627,2.22318891 56.407515,0.98153157 54.0654894,0.98153157 C51.7738601,0.98153157 48.9936672,2.94712723 48.9936672,8.40036179 C48.9936672,13.8543199 51.7738601,15.8177449 54.8378819,15.8177449 C57.669171,15.8177449 59.3679445,13.1300198 59.7032195,12.3033336 C59.9335023,11.761013 60.0111966,11.7089155 60.3198736,11.7089155 C60.5781543,11.7089155 60.7321429,11.8373503 60.7321429,12.0450168 C60.7321429,12.1995004 60.7058948,12.4328538 60.6810467,12.846016 L60.5781543,13.7508485 Z" id="Fill-8" fill="#185188"></path>
                        <g id="Group-12" transform="translate(63.289286, -0.000000)">
                            <mask id="mask-4" fill="white">
                                <use xlink:href="#path-3"></use>
                            </mask>
                            <g id="Clip-11"></g>
                            <path d="M9.05903119,15.49989 C11.4224199,15.49989 14.2862696,13.59974 14.2862696,8.32419 C14.2862696,3.04794 11.4224199,1.14709 9.05903119,1.14709 C6.6970858,1.14709 3.83107109,3.04794 3.83107109,8.32419 C3.83107109,13.59974 6.6970858,15.49989 9.05903119,15.49989 M9.05903119,0.19754 C14.0235907,0.19754 18.0031043,3.84839 18.0031043,8.32419 C18.0031043,12.79999 14.0235907,16.45014 9.05903119,16.45014 C4.09519331,16.45014 0.114958112,12.79999 0.114958112,8.32419 C0.114958112,3.84839 4.09519331,0.19754 9.05903119,0.19754" id="Fill-10" fill="#185188" mask="url(#mask-4)"></path>
                        </g>
                        <polygon id="Fill-13" fill="#9B9B9B" points="86.7796144 1.29230769 86.7796144 8.12569567 95.4178559 8.12569567 95.4178559 1.29230769 96.5321429 1.29230769 96.5321429 16.8 95.4178559 16.8 95.4178559 9.04668519 86.7796144 9.04668519 86.7796144 16.8 85.6642857 16.8 85.6642857 1.29230769"></polygon>
                        <path d="M107.489252,9.99796044 C107.513452,8.44175844 106.847618,6.0970903 104.086063,6.0970903 C101.564009,6.0970903 100.492839,8.27949025 100.278605,9.99796044 L107.489252,9.99796044 Z M100.207075,10.8797129 C100.207075,14.4313848 102.206711,15.847836 104.562218,15.847836 C106.227336,15.847836 107.084628,15.5229422 107.727686,15.2212806 L108.013094,16.0805157 C107.58427,16.3117657 106.417726,16.8 104.419514,16.8 C101.135541,16.8 99.0892857,14.4782067 99.0892857,11.2049642 C99.0892857,7.48995185 101.278245,5.16923077 104.229123,5.16923077 C107.965407,5.16923077 108.678571,8.60509889 108.678571,10.2063357 C108.678571,10.5079972 108.678571,10.6713377 108.631952,10.8797129 L100.207075,10.8797129 Z" id="Fill-15" fill="#9B9B9B"></path>
                        <path d="M117.593027,10.5902644 C115.085493,10.5210612 111.790203,10.8924039 111.790203,13.5556557 C111.790203,15.155533 112.889704,15.873605 114.082765,15.873605 C115.992519,15.873605 117.090948,14.737817 117.473042,13.6487589 C117.569458,13.4168926 117.593027,13.1625532 117.593027,12.9763467 L117.593027,10.5902644 Z M118.73895,13.9041685 C118.73895,14.7841902 118.762519,15.688112 118.907143,16.5456605 L117.85585,16.5456605 L117.689086,14.9457832 L117.640878,14.9457832 C117.067023,15.8033317 115.801115,16.8 113.963137,16.8 C111.64665,16.8 110.596429,15.2240227 110.596429,13.7411487 C110.596429,11.1695733 112.913273,9.61749614 117.593027,9.66351268 L117.593027,9.36315667 C117.593027,8.27338516 117.37734,6.0724391 114.655548,6.09526901 C113.65282,6.09526901 112.602599,6.35139207 111.765564,6.92998761 L111.409181,6.11916908 C112.457974,5.4474703 113.748522,5.16923077 114.775176,5.16923077 C118.094748,5.16923077 118.73895,7.57814304 118.73895,9.54757954 L118.73895,13.9041685 Z" id="Fill-17" fill="#9B9B9B"></path>
                        <polygon id="Fill-19" fill="#9B9B9B" points="122.103571 16.8 123.382143 16.8 123.382143 0.646153846 122.103571 0.646153846"></polygon>
                        <path d="M129.039223,3.23076923 L129.039223,5.64373122 L132.332143,5.64373122 L132.332143,6.53194239 L129.039223,6.53194239 L129.039223,13.6348276 C129.039223,15.0242787 129.495984,15.8890052 130.72144,15.8890052 C131.322309,15.8890052 131.755711,15.8210048 132.043568,15.7302208 L132.187676,16.5490295 C131.802789,16.6857313 131.274872,16.8 130.578411,16.8 C129.737122,16.8 129.039223,16.5490295 128.607259,16.0491917 C128.079342,15.4788998 127.887078,14.5465234 127.887078,13.4304759 L127.887078,6.53194239 L125.939286,6.53194239 L125.939286,5.64373122 L127.887078,5.64373122 L127.887078,3.64087462 L129.039223,3.23076923 Z" id="Fill-21" fill="#9B9B9B"></path>
                        <path d="M134.25,0.646153846 L135.38486,0.646153846 L135.38486,7.84880417 L135.431822,7.84880417 C135.762676,7.23529171 136.305036,6.66725052 136.96639,6.2800451 C137.627745,5.89458858 138.407034,5.64484634 139.258003,5.64484634 C140.319065,5.64484634 143.2,6.16706647 143.2,10.2342973 L143.2,16.8 L142.066905,16.8 L142.066905,10.347276 C142.066905,8.39410972 141.262899,6.59869383 138.950101,6.59869383 C137.34456,6.59869383 136.022204,7.71204056 135.5261,9.05309346 C135.407812,9.39342848 135.38486,9.68829223 135.38486,10.1433548 L135.38486,16.8 L134.25,16.8 L134.25,0.646153846 Z" id="Fill-22" fill="#9B9B9B"></path>
                    </g>
                </g>
            </g>
        </g>
    </g>
</svg>